<svg width="188" height="40" viewBox="0 0 188 40" fill="none" xmlns="http://www.w3.org/2000/svg">
<path d="M0 0V40L35.4545 32V0H0Z" fill="#0B6CFF"/>
<path d="M10.7274 21.091L8.50009 25.9092H5.90918L15.1365 5.90918L24.3183 25.9092H21.7274L19.5455 21.091H10.7274ZM15.091 11.091L11.7274 18.8637H18.591L15.091 11.091Z" fill="white"/>
<path d="M20.4092 8.13645H21.091C22.1364 8.13645 23.091 8.22736 23.8182 8.591H27.0455C25.9092 6.45464 23.1819 5.90918 20.3637 5.90918H16.1819L17.3637 8.591H20.3637V8.13645H20.4092Z" fill="white"/>
<path d="M20.4091 12.0456V9.36377H17.7727L19 12.0456H20.4091Z" fill="white"/>
<path d="M25.2727 12.0456H27.5909C27.6364 11.8183 27.6364 11.591 27.6364 11.4092C27.6364 10.6365 27.5455 9.95468 27.3182 9.36377H24.7273C25.0909 9.86377 25.2727 10.5001 25.2727 11.4092C25.3637 11.6365 25.3182 11.8638 25.2727 12.0456Z" fill="white"/>
<path d="M26.4544 15.5002C26.1817 15.3638 25.909 15.3184 25.5908 15.2275V15.182C26.4999 14.7275 27.1817 13.8184 27.4999 12.8184H25.2272C24.6817 14.4093 23.0453 14.7729 21.0908 14.7729H20.4544V12.8184H19.3635L20.5453 15.5002H26.4544Z" fill="white"/>
<path d="M20.9092 16.3184H27.7274C28.5455 17.0002 29.091 17.9547 29.3637 19.0002H26.8637C26.1819 17.182 23.8637 16.7729 21.9546 16.7729H21.1365L20.9092 16.3184Z" fill="white"/>
<path d="M26.2727 22.4089H29.1363C29.4091 21.818 29.5454 21.0907 29.5454 20.2725C29.5454 20.0907 29.5 19.9089 29.5 19.7271H27.0454C27.0909 19.8634 27.0909 19.9998 27.0909 20.0907C27.0909 21.1816 26.7727 21.9089 26.2727 22.4089Z" fill="white"/>
<path d="M25.0001 23.2271C24.7273 23.318 24.4546 23.4089 24.1819 23.4998L25.1364 25.5907C26.6364 25.2271 27.9546 24.4543 28.7273 23.2271H25.0001Z" fill="white"/>
<path d="M50.5 21.091L48.1819 25.9092H45.4546L55.1364 5.90918L64.8182 25.9092H62.091L59.7728 21.091H50.5ZM55.1364 11.1365L51.5455 18.9092H58.7273L55.1364 11.1365Z" fill="#15181D"/>
<path d="M80.6817 9.95464C79.2272 8.72736 77.2272 8.091 75.3181 8.091C70.7727 8.091 67.3181 11.6819 67.3181 15.9546C67.3181 20.1365 70.7727 23.7728 75.2727 23.7728C77.2727 23.7728 79.1817 23.091 80.6817 21.8183V24.5455C79.1363 25.4092 77.1363 25.9092 75.3636 25.9092C69.5908 25.9092 64.8181 21.5455 64.8181 16.0001C64.8181 10.3183 69.6363 5.90918 75.5908 5.90918C77.3636 5.90918 79.1817 6.36373 80.7272 7.22736L80.6817 9.95464Z" fill="#15181D"/>
<path d="M99.3636 9.95464C97.9091 8.72736 95.9091 8.091 94 8.091C89.4545 8.091 86 11.6819 86 15.9546C86 20.1365 89.4545 23.7728 93.9545 23.7728C95.9545 23.7728 97.8636 23.091 99.3636 21.8183V24.5455C97.8182 25.4092 95.8182 25.9092 94.0455 25.9092C88.2727 25.9092 83.5 21.5455 83.5 16.0001C83.5 10.3183 88.3182 5.90918 94.2727 5.90918C96.0455 5.90918 97.8636 6.36373 99.4091 7.22736L99.3636 9.95464Z" fill="#15181D"/>
<path d="M102.818 5.90918H113.682V8.18191H105.318V13.7728H113.454V16.0455H105.318V23.6365H113.682V25.9092H102.818V5.90918Z" fill="#15181D"/>
<path d="M120.955 23.6365H127.136V25.9092H118.455V5.90918H120.955V23.6365Z" fill="#15181D"/>
<path d="M147.591 8.54554L146.045 5.90918H143.136L144.682 8.54554H147.591Z" fill="#15181D"/>
<path d="M157.318 8.54554L158.864 5.90918H156L154.409 8.54554H157.318Z" fill="#15181D"/>
<path d="M168.682 23.2271H166.182V25.9089H168.682V23.2271Z" fill="#15181D"/>
<path d="M161.364 5.90918V8.18191H166.182V8.54554H168.682V8.18191H173.545V5.90918H161.364Z" fill="#15181D"/>
<path d="M176.364 5.90918V8.54554H178.909V8.18191H187.273V5.90918H176.364Z" fill="#15181D"/>
<path d="M132.727 8.13645H133.409C134.455 8.13645 135.409 8.22736 136.136 8.591H139.409C138.182 6.50009 135.5 5.90918 132.636 5.90918H130.182V8.54554H132.682L132.727 8.13645Z" fill="#15181D"/>
<path d="M132.682 9.36377H130.182V12.0456H132.682V9.36377Z" fill="#15181D"/>
<path d="M137.682 12.0455H140.046C140.091 11.8183 140.091 11.591 140.091 11.4092C140.091 10.6365 140 9.95463 139.773 9.40918H137.136C137.5 9.90918 137.682 10.5455 137.682 11.4546C137.727 11.6365 137.727 11.8637 137.682 12.0455Z" fill="#15181D"/>
<path d="M138.773 15.5002C138.5 15.3638 138.182 15.3184 137.864 15.2275V15.182C138.818 14.7275 139.455 13.8184 139.818 12.8184H137.455C136.909 14.4093 135.227 14.7729 133.318 14.7729H132.682V12.8184H130.182V15.4547H138.773V15.5002Z" fill="#15181D"/>
<path d="M132.727 19.0002V16.7729H134.273C136.182 16.7729 138.5 17.182 139.227 19.0002H141.773C141.5 17.9547 140.909 17.0002 140.091 16.3184H130.182V19.0002H132.727Z" fill="#15181D"/>
<path d="M134.682 23.6816H132.727V23.2271H130.227V25.9089H134.955C137.455 25.9089 139.955 25.1361 141.182 23.2271H137.409C136.591 23.5907 135.591 23.6816 134.682 23.6816Z" fill="#15181D"/>
<path d="M132.682 19.7729H130.182V22.4548H132.682V19.7729Z" fill="#15181D"/>
<path d="M138.591 22.4548H141.545C141.818 21.8639 141.954 21.1366 141.954 20.3184C141.954 20.1366 141.909 19.9548 141.909 19.7729H139.409C139.454 19.9093 139.454 20.0457 139.454 20.1366C139.454 21.182 139.136 21.9093 138.591 22.4548Z" fill="#15181D"/>
<path d="M155.273 12.0456L156.864 9.36377H153.955L152.409 12.0456H155.273Z" fill="#15181D"/>
<path d="M149.591 12.0456L148.046 9.36377H145.182L146.727 12.0456H149.591Z" fill="#15181D"/>
<path d="M153.273 15.5002L154.818 12.8184H151.955L151 14.4547L150.091 12.8184H147.182L148.773 15.5002H153.273Z" fill="#15181D"/>
<path d="M149.727 19.0002H152.273V17.2274L152.818 16.3184H149.227L149.727 17.2274V19.0002Z" fill="#15181D"/>
<path d="M152.227 23.2271H149.727V25.9089H152.227V23.2271Z" fill="#15181D"/>
<path d="M152.227 19.7729H149.727V22.4548H152.227V19.7729Z" fill="#15181D"/>
<path d="M168.682 9.36377H166.182V12.0456H168.682V9.36377Z" fill="#15181D"/>
<path d="M168.682 12.8184H166.182V15.5002H168.682V12.8184Z" fill="#15181D"/>
<path d="M168.682 16.3184H166.182V19.0002H168.682V16.3184Z" fill="#15181D"/>
<path d="M168.682 19.7729H166.182V22.4548H168.682V19.7729Z" fill="#15181D"/>
<path d="M178.864 9.36377H176.364V12.0456H178.864V9.36377Z" fill="#15181D"/>
<path d="M178.864 16.3184H176.364V19.0002H178.864V16.3184Z" fill="#15181D"/>
<path d="M178.909 23.6361V23.2271H176.364V25.9089H187.273V23.6361H178.909Z" fill="#15181D"/>
<path d="M178.864 19.7729H176.364V22.4548H178.864V19.7729Z" fill="#15181D"/>
<path d="M187.045 15.5002V13.7729H178.909V12.8184H176.364V15.5002H183.682H187.045Z" fill="#15181D"/>
</svg>
