<svg width="195" height="31" viewBox="0 0 195 31" fill="none" xmlns="http://www.w3.org/2000/svg">
<mask id="mask0_1_2494" style="mask-type:luminance" maskUnits="userSpaceOnUse" x="0" y="0" width="179" height="31">
<path d="M178.668 0H0V30.75H178.668V0Z" fill="white"/>
</mask>
<g mask="url(#mask0_1_2494)">
<mask id="mask1_1_2494" style="mask-type:luminance" maskUnits="userSpaceOnUse" x="0" y="0" width="179" height="31">
<path d="M178.668 0H0V30.75H178.668V0Z" fill="white"/>
</mask>
<g mask="url(#mask1_1_2494)">
<path fill-rule="evenodd" clip-rule="evenodd" d="M167.943 13.6266V14.663H169.738V20.3408C169.714 21.0052 169.783 21.6696 169.944 22.3145C170.842 25.2885 172.987 25.8202 175.68 25.8202C176.577 25.6851 177.977 25.5769 178.65 24.9191V21.5394H178.516C177.618 22.4407 174.127 22.9994 174.127 20.6382V14.663H178.614V11.4186H174.127V7.13776H173.355L167.943 13.6266Z" fill="#030000"/>
<path fill-rule="evenodd" clip-rule="evenodd" d="M157.146 13.7618C156.916 14.2153 156.788 14.7135 156.769 15.2218C156.589 17.6822 158.357 19.025 160.198 19.8541C161.144 20.1795 162.048 20.6183 162.89 21.1609C163.028 21.2769 163.116 21.441 163.137 21.62C163.159 21.7989 163.112 21.9795 163.006 22.1252C162.109 23.1616 158.519 22.5128 157.218 21.4042H156.966V24.7839C158.694 25.6197 160.611 25.9774 162.522 25.8203C165.107 25.4508 167.162 24.0809 167.144 21.4132C167.182 20.6769 167.03 19.9432 166.705 19.2822C166.38 18.6212 165.892 18.0548 165.286 17.6371C164.245 16.8981 160.879 15.5733 160.844 15.1767C160.682 13.6536 162.639 14.0502 163.536 14.2755C164.529 14.4712 165.456 14.9179 166.229 15.5733H166.489V12.1937C164.977 11.4734 163.302 11.1627 161.633 11.2924C159.614 11.4276 157.909 12.1937 157.146 13.8069" fill="#030000"/>
<path fill-rule="evenodd" clip-rule="evenodd" d="M147.533 11.1573C152.371 11.1573 154.893 14.4377 154.893 18.4842C154.893 20.4442 154.117 22.3239 152.737 23.7098C151.357 25.0958 149.485 25.8743 147.533 25.8743C145.582 25.8743 143.71 25.0958 142.33 23.7098C140.949 22.3239 140.174 20.4442 140.174 18.4842C140.174 14.4377 142.705 11.1573 147.533 11.1573ZM147.605 14.1133C145.55 14.1133 144.778 15.9157 144.778 18.4031C144.778 20.8905 145.298 22.9093 147.659 22.9093C150.02 22.9093 150.297 20.8184 150.297 18.4031C150.297 15.9878 149.651 14.1133 147.605 14.1133Z" fill="#030000"/>
<path fill-rule="evenodd" clip-rule="evenodd" d="M124.539 25.5589H128.802L128.937 25.4328V16.5736C129.789 15.375 130.876 14.4107 132.195 14.7712C132.618 14.92 132.979 15.2067 133.222 15.5855C133.464 15.9644 133.573 16.4137 133.532 16.862L133.487 25.5409H137.75V16.0419C137.735 15.0178 137.397 14.0249 136.787 13.2044C136.176 12.3839 135.324 11.7778 134.35 11.4723C133.376 11.1667 132.332 11.1773 131.365 11.5027C130.398 11.828 129.558 12.4514 128.964 13.2842V4.80359H124.566L124.539 25.5589Z" fill="#030000"/>
<path fill-rule="evenodd" clip-rule="evenodd" d="M113.984 22.4407C113.506 22.2718 113.067 22.0082 112.692 21.6656V15.1767L112.818 15.0505C113.787 14.5639 114.613 14.1494 115.662 14.5279C116.188 14.7425 116.644 15.0982 116.981 15.5561C117.319 16.0139 117.524 16.5562 117.574 17.1234V19.7189C117.575 20.1565 117.475 20.5882 117.28 20.9798C117.085 21.3713 116.803 21.7119 116.454 21.9744C116.106 22.237 115.701 22.4142 115.272 22.492C114.843 22.5698 114.402 22.5461 113.984 22.4226M108.168 25.5409H112.566L112.692 24.7659C113.299 25.1437 113.95 25.4463 114.631 25.6671C115.514 25.8937 116.44 25.8937 117.323 25.6671C118.355 25.3819 119.299 24.8402 120.068 24.092C120.836 23.3438 121.405 22.4133 121.721 21.3862C122.852 17.9616 121.766 13.3743 118.355 11.662L118.104 11.5268C117.197 11.1979 116.228 11.0742 115.268 11.1645C114.307 11.2549 113.379 11.5571 112.548 12.0495V4.80359H108.15L108.168 25.5409Z" fill="#030000"/>
<path fill-rule="evenodd" clip-rule="evenodd" d="M101.957 16.7539H96.7522C97.1646 13.149 101.715 13.149 101.957 16.7539ZM97.5416 11.2834C91.3937 12.437 90.1552 22.0351 95.7469 24.91C96.7108 25.5183 97.8305 25.8315 98.9688 25.8112C101.33 25.8257 103.652 25.2032 105.691 24.0088V21.0167H105.431C102.828 23.6303 96.9944 23.9908 96.644 19.3314H105.817V17.1234C105.633 15.745 105.043 14.4532 104.124 13.4129C103.204 12.3727 101.997 11.6312 100.656 11.2834L99.8754 11.1573H98.3225L97.5416 11.2834Z" fill="#030000"/>
<path fill-rule="evenodd" clip-rule="evenodd" d="M69.8984 11.8061L70.0331 12.0675L75.7144 25.8202H77.7784L77.913 25.5589L80.9647 18.5293L84.106 25.8202H86.1795L91.9859 11.8061V11.4186H87.5972L85.1382 18.6825H84.8869L82.3018 11.4186H79.5916L77.0065 18.6825H76.7461L74.2962 11.4186H69.8984V11.8061Z" fill="#030000"/>
<path fill-rule="evenodd" clip-rule="evenodd" d="M62.9698 18.6465C61.2913 22.0261 58.2311 21.5484 54.6588 21.5394V8.81401L58.536 8.9492C59.6461 8.98616 60.7134 9.3866 61.5754 10.0896C62.4375 10.7925 63.0472 11.7593 63.3107 12.8425C63.8483 14.7608 63.7285 16.805 62.9698 18.6465ZM49.6147 25.5589H58.6616C61.1418 25.5466 63.5498 24.7206 65.5189 23.2067C67.3087 21.7301 68.4417 19.6005 68.6691 17.2856C68.9406 15.7159 68.8902 14.107 68.5212 12.5575C68.1528 11.0079 67.4731 9.5501 66.5241 8.27329C65.6047 7.17837 64.4548 6.30226 63.1569 5.70842C61.8596 5.11457 60.4467 4.81778 59.0205 4.83962H49.6147V25.5589Z" fill="#030000"/>
<path d="M45.4862 4.80359H40.5767V25.5589H45.4862V4.80359Z" fill="#030000"/>
<path fill-rule="evenodd" clip-rule="evenodd" d="M2.21703 0H8.07782C8.66975 0.00710431 9.23492 0.248863 9.65015 0.672577C10.0654 1.09629 10.2971 1.66766 10.2946 2.26209V6.63304C10.2645 6.9627 10.3067 7.29491 10.4184 7.60638C10.53 7.91781 10.7084 8.20087 10.9409 8.43552L16.3708 13.7167C17.1427 14.4557 17.035 14.4557 18.0223 14.4557H28.3437C29.0261 14.4629 29.678 14.7407 30.1572 15.2287C30.6364 15.7166 30.904 16.375 30.9016 17.0603V28.1364C30.904 28.8226 30.6367 29.4819 30.1577 29.9713C29.6788 30.4607 29.0269 30.7405 28.3437 30.75H17.3043C16.6194 30.7428 15.9652 30.4641 15.4843 29.9745C15.0035 29.4848 14.7349 28.8241 14.7374 28.1364V18.0246C14.7763 17.6493 14.7193 17.2703 14.5717 16.9234C14.4241 16.5764 14.1907 16.273 13.8937 16.0419L8.74196 11.0221C8.54877 10.7603 8.29275 10.5519 7.99766 10.4163C7.70261 10.2808 7.3782 10.2226 7.05464 10.247H2.21703C1.62504 10.2399 1.05987 9.9981 0.644641 9.57438C0.22941 9.15067 -0.00222268 8.57936 0.000163097 7.98493V2.28011C-0.00338906 1.98422 0.0511131 1.69056 0.160594 1.41583C0.270127 1.14109 0.432413 0.89069 0.638279 0.678992C0.844145 0.467241 1.08951 0.298328 1.36037 0.181796C1.63129 0.0653169 1.92236 0.00355216 2.21703 0Z" fill="#353893"/>
<path fill-rule="evenodd" clip-rule="evenodd" d="M2.58492 13.0498H9.34319C10.028 13.057 10.6822 13.3358 11.1631 13.8254C11.644 14.315 11.9125 14.9757 11.9101 15.6634V28.1364C11.9125 28.8241 11.644 29.4849 11.1631 29.9745C10.6822 30.4641 10.028 30.7429 9.34319 30.75H2.57591C2.23569 30.7488 1.89909 30.6802 1.58533 30.5481C1.27158 30.4161 0.986926 30.2231 0.747607 29.9803C0.508287 29.7374 0.319068 29.4496 0.19082 29.1331C0.062518 28.8168 -0.00232225 28.4781 6.35224e-05 28.1364V15.6634C-0.00237527 14.9773 0.264938 14.3179 0.743895 13.8286C1.2228 13.3392 1.87475 13.0593 2.55799 13.0498" fill="#EFA22A"/>
<path fill-rule="evenodd" clip-rule="evenodd" d="M21.6752 0H28.3527C29.028 0.00715733 29.6731 0.282105 30.1473 0.764986C30.6214 1.24787 30.8861 1.8994 30.8837 2.57754V9.10242C30.8897 9.44126 30.8288 9.77786 30.7046 10.0929C30.5804 10.408 30.3953 10.6953 30.16 10.9383C29.9248 11.1812 29.644 11.375 29.3338 11.5085C29.0236 11.642 28.6902 11.7125 28.3527 11.716H21.6752C20.9984 11.7112 20.351 11.4373 19.875 10.9542C19.3989 10.4711 19.1329 9.81816 19.1353 9.13848V2.57754C19.1329 1.89786 19.3989 1.24495 19.875 0.761858C20.351 0.278712 20.9984 0.00477155 21.6752 0Z" fill="#E8262B"/>
</g>
</g>
</svg>